<svg xmlns="http://www.w3.org/2000/svg" width="900" height="560" viewBox="0 0 900 560">
  <rect width="900" height="560" rx="24" fill="#F8FBFF"/><rect x="44" y="42" width="812" height="476" rx="22" fill="#fff" stroke="#D7E2F0"/>
  <text x="78" y="100" font-family="Inter,Arial" font-size="30" font-weight="800" fill="#102033">Appointment Booking Automation</text>
  <rect x="120" y="162" width="300" height="250" rx="22" fill="#fff" stroke="#CBD5E1"/><rect x="120" y="162" width="300" height="58" rx="22" fill="#2563EB"/><text x="160" y="200" font-family="Inter,Arial" font-size="20" font-weight="800" fill="#fff">June Calendar</text>
  <g fill="#DBEAFE"><rect x="156" y="250" width="42" height="34" rx="8"/><rect x="220" y="250" width="42" height="34" rx="8"/><rect x="284" y="250" width="42" height="34" rx="8"/><rect x="348" y="250" width="42" height="34" rx="8"/><rect x="156" y="306" width="42" height="34" rx="8"/><rect x="220" y="306" width="42" height="34" rx="8"/><rect x="284" y="306" width="42" height="34" rx="8"/><rect x="348" y="306" width="42" height="34" rx="8"/></g>
  <rect x="535" y="205" width="230" height="80" rx="16" fill="#ECFDF5" stroke="#A7F3D0"/><text x="585" y="254" font-family="Inter,Arial" font-size="20" font-weight="800" fill="#059669">Qualify</text>
  <rect x="535" y="335" width="230" height="80" rx="16" fill="#FFFBEB" stroke="#FDE68A"/><text x="584" y="384" font-family="Inter,Arial" font-size="20" font-weight="800" fill="#D97706">Remind</text>
  <path d="M420 286h115M650 285v50" stroke="#94A3B8" stroke-width="6" stroke-linecap="round"/>
</svg>
