<svg xmlns="http://www.w3.org/2000/svg" width="900" height="560" viewBox="0 0 900 560">
  <rect width="900" height="560" rx="24" fill="#F8FBFF"/><rect x="44" y="42" width="812" height="476" rx="22" fill="#fff" stroke="#D7E2F0"/>
  <text x="78" y="100" font-family="Inter,Arial" font-size="30" font-weight="800" fill="#102033">Social Media Content Workflow</text>
  <rect x="90" y="158" width="190" height="248" rx="18" fill="#EFF6FF" stroke="#BFDBFE"/><rect x="355" y="158" width="190" height="248" rx="18" fill="#F5F3FF" stroke="#DDD6FE"/><rect x="620" y="158" width="190" height="248" rx="18" fill="#ECFDF5" stroke="#A7F3D0"/>
  <g font-family="Inter,Arial" font-size="20" font-weight="800"><text x="136" y="220" fill="#2563EB">Ideas</text><text x="391" y="220" fill="#7C3AED">Approval</text><text x="657" y="220" fill="#059669">Schedule</text></g>
  <g fill="#fff" stroke="#CBD5E1"><rect x="125" y="260" width="120" height="18" rx="9"/><rect x="125" y="302" width="92" height="18" rx="9"/><rect x="390" y="260" width="120" height="18" rx="9"/><rect x="390" y="302" width="92" height="18" rx="9"/><rect x="655" y="260" width="120" height="18" rx="9"/><rect x="655" y="302" width="92" height="18" rx="9"/></g>
  <path d="M280 282h75M545 282h75" stroke="#94A3B8" stroke-width="6" stroke-linecap="round"/>
</svg>
