<svg xmlns="http://www.w3.org/2000/svg" width="960" height="760" viewBox="0 0 960 760">
  <rect width="960" height="760" rx="28" fill="#F8FBFF"/>
  <rect x="34" y="34" width="892" height="692" rx="24" fill="#fff" stroke="#D7E2F0"/>
  <rect x="68" y="70" width="824" height="62" rx="16" fill="#102033"/>
  <circle cx="104" cy="101" r="10" fill="#13B981"/>
  <circle cx="134" cy="101" r="10" fill="#F59E0B"/>
  <circle cx="164" cy="101" r="10" fill="#60A5FA"/>
  <text x="210" y="109" font-family="Inter, Arial" font-size="22" font-weight="700" fill="#fff">Operations Automation Console</text>
  <g font-family="Inter, Arial" font-size="18" font-weight="700">
    <rect x="84" y="182" width="190" height="120" rx="18" fill="#EFF6FF" stroke="#BFDBFE"/>
    <text x="120" y="233" fill="#2563EB">Lead Intake</text>
    <text x="120" y="263" font-size="14" fill="#64748B">Forms + Webhooks</text>
    <rect x="386" y="182" width="190" height="120" rx="18" fill="#ECFDF5" stroke="#A7F3D0"/>
    <text x="421" y="233" fill="#059669">AI Scoring</text>
    <text x="421" y="263" font-size="14" fill="#64748B">OpenAI + Rules</text>
    <rect x="688" y="182" width="190" height="120" rx="18" fill="#FFFBEB" stroke="#FDE68A"/>
    <text x="727" y="233" fill="#D97706">CRM Sync</text>
    <text x="727" y="263" font-size="14" fill="#64748B">HubSpot + Slack</text>
    <rect x="234" y="426" width="190" height="120" rx="18" fill="#F5F3FF" stroke="#DDD6FE"/>
    <text x="270" y="477" fill="#7C3AED">Agent Task</text>
    <text x="270" y="507" font-size="14" fill="#64748B">Research + Draft</text>
    <rect x="536" y="426" width="190" height="120" rx="18" fill="#F0FDFA" stroke="#99F6E4"/>
    <text x="574" y="477" fill="#0F766E">Reporting</text>
    <text x="574" y="507" font-size="14" fill="#64748B">Metrics + Alerts</text>
  </g>
  <g stroke="#94A3B8" stroke-width="6" stroke-linecap="round" fill="none">
    <path d="M274 242h112"/>
    <path d="M576 242h112"/>
    <path d="M481 302v62c0 34-24 62-58 62h-8"/>
    <path d="M631 302v124"/>
    <path d="M424 486h112"/>
  </g>
  <g fill="#fff" stroke="#CBD5E1" stroke-width="3">
    <circle cx="330" cy="242" r="13"/>
    <circle cx="632" cy="242" r="13"/>
    <circle cx="481" cy="360" r="13"/>
    <circle cx="631" cy="360" r="13"/>
    <circle cx="480" cy="486" r="13"/>
  </g>
  <rect x="84" y="612" width="794" height="58" rx="16" fill="#F1F5F9"/>
  <rect x="112" y="631" width="210" height="20" rx="10" fill="#2563EB"/>
  <rect x="350" y="631" width="160" height="20" rx="10" fill="#13B981"/>
  <rect x="538" y="631" width="286" height="20" rx="10" fill="#F59E0B"/>
</svg>
